<svg xmlns="http://www.w3.org/2000/svg" viewBox="0 0 267.25 54.4"><defs><style>.cls-1{fill:#013369;}.cls-2,.cls-3{fill:#fff;}.cls-3{isolation:isolate;}.cls-4{fill:#d50a0a;}</style></defs><g id="Layer_2" data-name="Layer 2"><g id="Layer_1-2" data-name="Layer 1"><polygon class="cls-1" points="96.05 13.07 88.57 13.07 81.33 21.98 74.09 13.07 66.61 13.07 66.61 14.49 76.32 26.43 66.61 38.37 66.61 39.79 74.09 39.79 81.33 30.89 88.57 39.79 96.05 39.79 96.05 38.37 86.34 26.43 96.05 14.49 96.05 13.07"/><path class="cls-1" d="M48.43,13.07H66.61V19.6H55.33v3.45H66.5v6.31H55.33v3.9H66.61v6.53H48.43Z"/><path class="cls-1" d="M116.09,20.05v5c0,4.79-2.86,6.94-9.28,6.94H103v7.79H96V13.07h10.77C113.23,13.07,116.09,15.26,116.09,20.05Zm-6.91.29a.67.67,0,0,0-.74-.74H103v5.87h5.49a.67.67,0,0,0,.74-.75Z"/><path class="cls-1" d="M119.91,13.07H138.1V19.6H126.81v3.45H138v6.31H126.81v3.9H138.1v6.53H119.91Z"/><path class="cls-1" d="M162.59,38.31v1.48h-6.75l-4.09-8.91h-2.48v8.91h-6.91V13.07h10.77c6.42,0,9.28,2.19,9.28,7v3.89c0,3.08-1.18,5.06-3.72,6.09ZM149.27,24.72h5.49a.67.67,0,0,0,.74-.74V20.34a.67.67,0,0,0-.74-.74h-5.49Z"/><path class="cls-1" d="M166.49,13h7V39.79h-7Z"/><path class="cls-1" d="M177.73,13.07h18.19V19.6H184.64v3.45h11.17v6.31H184.64v3.9h11.28v6.53H177.73Z"/><path class="cls-1" d="M200.19,13.07h7.16l6.27,14.33h0l-.18-6.24V13.07h6.68V39.79H213l-6.31-14.32h0l.22,6.23v8.09h-6.68Z"/><path class="cls-1" d="M224.42,33V19.9c0-4.79,2.86-7,9.28-7h1.86c6.42,0,9.28,2.19,9.28,7v3.45h-6.91V20.2a.67.67,0,0,0-.74-.75h-5.12a.67.67,0,0,0-.74.75V32.67a.67.67,0,0,0,.74.74h5.12a.67.67,0,0,0,.74-.74V29.51h6.91V33c0,4.79-2.86,7-9.28,7H233.7C227.28,39.94,224.42,37.75,224.42,33Z"/><path class="cls-1" d="M249.07,13.07h18.18V19.6H256v3.45h11.17v6.31H256v3.9h11.28v6.53H249.07Z"/><path class="cls-1" d="M142.77,50.92c0-2.38,1.55-4.16,3.68-4.16a2.1,2.1,0,0,1,2.26,2.5h-1.83c.08-.73-.2-1-.7-1-.81,0-1.48,1.13-1.48,2.49,0,.6.23,1,.77,1s.89-.27,1.11-1h1.83a3.28,3.28,0,0,1-3.17,2.5A2.19,2.19,0,0,1,142.77,50.92Z"/><path class="cls-1" d="M152.45,52.14h-1.83l-.47,1h-1.9l3.51-6.2h1.67l1,6.2h-1.91Zm-.12-1.31L152.18,49h0l-.89,1.82Z"/><path class="cls-1" d="M161.06,48.56a2.66,2.66,0,0,1-2.92,2.67h-1l-.38,1.87h-1.9l1.26-6.2h3C160.51,46.9,161.06,47.64,161.06,48.56Zm-1.84.29c0-.46-.38-.46-.77-.46h-.71l-.29,1.39h.72C158.46,49.78,159.22,49.78,159.22,48.85Z"/><path class="cls-1" d="M163.79,48.47l-.15.75h2.8l-.3,1.49h-2.8l-.16.82h3.07l-.33,1.57h-5l1.26-6.2h4.94l-.31,1.57Z"/><path class="cls-1" d="M174.58,48.47H173l-.94,4.63h-1.9l.94-4.63H169.5l.31-1.57h5.1Z"/><path class="cls-1" d="M174.77,50.88a3.84,3.84,0,0,1,3.76-4.12,2.27,2.27,0,0,1,2.54,2.45,3.77,3.77,0,0,1-3.75,4A2.25,2.25,0,0,1,174.77,50.88Zm4.37-1.49c0-.72-.25-1.13-.86-1.13-.88,0-1.58,1.07-1.58,2.44,0,.63.26,1,.87,1C178.52,51.74,179.14,50.66,179.14,49.39Z"/><path class="cls-1" d="M190,46.9l-2.89,6.2h-1.62V49l-1.63,4.08h-1.62l-.38-6.2h1.85l-.14,3.89h0l1.53-3.89h1.61l0,3.89h0l1.43-3.89Z"/><path class="cls-1" d="M195.87,46.9l-1.24,6.2h-1.87l-1-3.06-.61,3.06h-1.82l1.26-6.2h1.85l1,3.1.63-3.1Z"/><path class="cls-1" d="M198.16,51.33l-1.39,3.07h-1.24l1-3.07Z"/><path class="cls-1" d="M201.06,51.08h1.84c-.09.56.15.82.66.82s.89-.26.89-.66-.27-.45-1.11-.69-1.69-.51-1.69-1.43c0-1.36,1.25-2.36,2.94-2.36,1.28,0,2.36.52,2.12,1.93h-1.83c0-.41-.24-.59-.61-.59s-.75.18-.75.55.25.37.82.51c1.15.28,2.06.67,2.06,1.67,0,1.46-1.26,2.41-3.22,2.41C202.28,53.24,200.71,53,201.06,51.08Z"/><path class="cls-1" d="M207,50.88a3.84,3.84,0,0,1,3.76-4.12,2.27,2.27,0,0,1,2.54,2.45,3.77,3.77,0,0,1-3.75,4A2.25,2.25,0,0,1,207,50.88Zm4.38-1.49c0-.72-.26-1.13-.87-1.13-.88,0-1.58,1.07-1.58,2.44,0,.63.26,1,.87,1C210.79,51.74,211.42,50.66,211.42,49.39Z"/><path class="cls-1" d="M214,50.61l.75-3.71h1.92L216,50.37c-.14.69-.27,1.37.56,1.37s1-.68,1.1-1.37l.7-3.47h1.92l-.75,3.71a2.92,2.92,0,0,1-3.22,2.63C214.44,53.24,213.63,52.42,214,50.61Z"/><path class="cls-1" d="M225.62,48.47H224l-.93,4.63h-1.9l.94-4.63h-1.6l.31-1.57h5.1Z"/><path class="cls-1" d="M232.14,46.9l-1.25,6.2H229l.48-2.4h-1.61l-.48,2.4h-1.9l1.25-6.2h1.89l-.44,2.23h1.61l.45-2.23Z"/><path class="cls-1" d="M237.75,52.14h-1.82l-.48,1h-1.9l3.51-6.2h1.67l1,6.2h-1.9Zm-.12-1.31L237.48,49h0l-.89,1.82Z"/><path class="cls-1" d="M243,48.47l-.16.75h2.46l-.3,1.49h-2.46l-.48,2.39h-1.9l1.26-6.2H246l-.31,1.57Z"/><path class="cls-1" d="M250.12,50.86,251,53.1h-2l-.73-2h-.45l-.41,2h-1.9l1.26-6.2h3a1.7,1.7,0,0,1,1.9,1.72A2.25,2.25,0,0,1,250.12,50.86Zm-2-1.11h.71c.52,0,1.05-.15,1.05-.88,0-.47-.4-.48-.78-.48h-.7Z"/><path class="cls-1" d="M253,46.9h1.89l-1.24,6.2h-1.91Z"/><path class="cls-1" d="M255.05,50.92c0-2.38,1.55-4.16,3.67-4.16a2.11,2.11,0,0,1,2.27,2.5h-1.83c.08-.73-.2-1-.71-1-.8,0-1.47,1.13-1.47,2.49,0,.6.23,1,.77,1s.89-.27,1.11-1h1.83a3.29,3.29,0,0,1-3.17,2.5A2.19,2.19,0,0,1,255.05,50.92Z"/><path class="cls-1" d="M264.72,52.14H262.9l-.47,1h-1.9L264,46.9h1.67l1,6.2h-1.9Zm-.11-1.31L264.45,49h0l-.89,1.82Z"/><path class="cls-2" d="M37.18,6a10.69,10.69,0,0,1-8.89,1.8A13,13,0,0,1,19.23,0a13,13,0,0,1-9.07,7.81A10.69,10.69,0,0,1,1.27,6H0V38.76a6.43,6.43,0,0,0,1.55,4.09c1.65,2,4.47,3.32,8.36,3.88a12.29,12.29,0,0,1,7,3,16.6,16.6,0,0,1,2.32,3.12,17,17,0,0,1,2.31-3.12,12.32,12.32,0,0,1,7-3c3.89-.56,6.71-1.86,8.37-3.88a6.46,6.46,0,0,0,1.54-4.09V6Z"/><path class="cls-1" d="M37.3,7.29A11.44,11.44,0,0,1,28,8.93a13.94,13.94,0,0,1-8.78-6.32,14,14,0,0,1-8.79,6.32A11.44,11.44,0,0,1,1.15,7.29V38.76c0,1.07.45,5.61,8.92,6.83a13.37,13.37,0,0,1,7.64,3.29,10.35,10.35,0,0,1,1.52,1.83,9.84,9.84,0,0,1,1.51-1.83,13.37,13.37,0,0,1,7.64-3.29c8.47-1.22,8.92-5.76,8.92-6.83Z"/><path class="cls-3" d="M19.23,47.51s2.45-3,8.84-4c7.32-1.13,7.1-4.56,7.11-4.74V22.27H3.28V38.75c0,.17-.22,3.61,7.1,4.74C16.77,44.48,19.23,47.51,19.23,47.51Z"/><path class="cls-4" d="M11.79,34.32V26.48l-1-.55v-2h4.48v2l-.93.55v16L12,41.75,8.49,31.53v6.74l1.1.84v2.08L4.78,40V38.2l1.1-.43V26.48l-1.12-.55v-2H8.39Z"/><path class="cls-4" d="M20,41.48l1,1.15v2l-4.77-1.77V41.16l1.06-.43V26.48L16.24,26V23.89h8.27V28H22.69l-.55-1.7H20v4.78h1.57l.63-.9H23.5v4.25H22.24l-.6-.86H20Z"/><path class="cls-4" d="M25.29,42.2v-2l1.18-1V26.48l-1-.53V23.89h4.77V26l-.94.53V38.41l2.05-.55.39-3.13h2V40Z"/><path class="cls-2" d="M4.11,18.9,2.66,17.81H4.43L5,16.14l.58,1.67H7.35L5.91,18.9l.53,1.69L5,19.59l-1.44,1Z"/><path class="cls-2" d="M10.36,18.9,8.92,17.81h1.77l.58-1.67.58,1.67h1.76L12.17,18.9l.53,1.69-1.43-1-1.44,1Z"/><path class="cls-2" d="M4.11,13.25,2.66,12.16H4.43L5,10.49l.58,1.67H7.35L5.91,13.25l.53,1.69L5,13.94l-1.44,1Z"/><path class="cls-2" d="M10.36,13.25,8.92,12.16h1.77l.58-1.67.58,1.67h1.76l-1.44,1.09.53,1.69-1.43-1-1.44,1Z"/><path class="cls-2" d="M34.88,20.59l-1.44-1-1.43,1,.53-1.69L31.1,17.81h1.76l.58-1.67L34,17.81h1.76L34.35,18.9Z"/><path class="cls-2" d="M28.62,20.59l-1.44-1-1.43,1,.53-1.69-1.44-1.09H26.6l.58-1.67.59,1.67h1.76L28.09,18.9Z"/><path class="cls-2" d="M34.88,14.94l-1.44-1-1.43,1,.53-1.69L31.1,12.16h1.76l.58-1.67L34,12.16h1.76l-1.44,1.09Z"/><path class="cls-2" d="M28.62,14.94l-1.44-1-1.43,1,.53-1.69-1.44-1.09H26.6l.58-1.67.59,1.67h1.76l-1.44,1.09Z"/><path class="cls-2" d="M23.2,8.72a8.53,8.53,0,0,0-1.79,1.41,5.56,5.56,0,0,1,.65.45l-.47.43a5,5,0,0,0-1.93-1l.57-.38a4.11,4.11,0,0,1,.57.19A9.55,9.55,0,0,1,23,8.56a1.07,1.07,0,0,0-.43-.06c-4.63.06-8.9,3.52-8.09,9.44a7.29,7.29,0,0,0,.64,2.26,17.75,17.75,0,0,1,1.57-5.49,4.84,4.84,0,0,0-.7-.2c.11-.23.27-.53.27-.53a4.87,4.87,0,0,1,2.15,1c-.15.25-.25.4-.32.53a6.24,6.24,0,0,0-.68-.46,19,19,0,0,0-2,5.26c0,.07.15.1.25.09,5.08-.66,7.45-3.25,8.18-6A8.66,8.66,0,0,0,23.48,9C23.43,8.89,23.35,8.7,23.2,8.72ZM18.84,14.3a4.9,4.9,0,0,0-2.19-1s.23-.37.37-.57a4.78,4.78,0,0,1,2.19,1.06Zm.83-1.16a4.88,4.88,0,0,0-2.2-1.07c.13-.17.28-.34.43-.51a5.06,5.06,0,0,1,2.18,1C19.94,12.79,19.8,13,19.67,13.14ZM20.6,12a4.86,4.86,0,0,0-2.13-1c.19-.18.38-.33.54-.47a5,5,0,0,1,2,1Q20.81,11.78,20.6,12Z"/></g></g></svg>